<svg width="71" height="71" viewBox="0 0 71 71" fill="none" xmlns="http://www.w3.org/2000/svg">
<path d="M60.5166 60.6882C57.2561 63.9493 53.374 66.52 49.1013 68.2472C44.8286 69.9743 40.2527 70.8227 35.646 70.7418C31.068 70.8319 26.5198 69.9861 22.2792 68.256C18.0386 66.526 14.1946 63.948 10.9821 60.6796C7.69401 57.4725 5.10061 53.6213 3.36355 49.3662C1.62649 45.111 0.783011 40.543 0.885684 35.9469C0.885684 25.8905 4.2569 17.511 10.9993 10.8086C14.2139 7.54112 18.0596 4.96438 22.3017 3.23581C26.5438 1.50724 31.0931 0.663138 35.6718 0.755069C40.2776 0.676912 44.8521 1.52743 49.1232 3.25604C53.3943 4.98464 57.2748 7.55603 60.5338 10.8173C67.4255 17.5254 70.8714 25.9077 70.8714 35.9642C70.9585 40.5803 70.0825 45.1637 68.2994 49.4212C66.5163 53.6786 63.8655 57.5162 60.5166 60.6882Z" fill="url(#paint0_linear_1_1888)"/>
<path d="M57.5096 37.8288C57.5096 49.8845 47.7365 56 35.6808 56C23.6251 56 13.852 49.8845 13.852 37.8288C13.852 25.7731 23.6251 16 35.6808 16C47.7365 16 57.5096 25.7731 57.5096 37.8288Z" fill="#DBC6BA"/>
<path fill-rule="evenodd" clip-rule="evenodd" d="M50.8932 51.1453C54.7513 48.1802 57.1438 43.7455 57.1438 37.8288C57.1438 25.9751 47.5345 16.3658 35.6808 16.3658C23.8271 16.3658 14.2178 25.9751 14.2178 37.8288C14.2178 43.7455 16.6103 48.1802 20.4684 51.1453C24.338 54.1191 29.7095 55.6343 35.6808 55.6343C41.6521 55.6343 47.0236 54.1191 50.8932 51.1453ZM35.6808 56C47.7365 56 57.5096 49.8845 57.5096 37.8288C57.5096 25.7731 47.7365 16 35.6808 16C23.6251 16 13.852 25.7731 13.852 37.8288C13.852 49.8845 23.6251 56 35.6808 56Z" fill="#956C6C"/>
<path d="M55.182 38.8861C44.4118 38.8861 16.1796 38.8861 16.1796 38.8861C16.1796 27.5319 24.9106 18.3275 35.6808 18.3275C46.451 18.3275 55.182 27.5319 55.182 38.8861Z" fill="#956C6C"/>
<path d="M60.5686 37.6958H10.8761C10.4273 40.9876 11.7407 42.5503 13.2868 42.9992H56.0964C60.3392 43.5578 60.8457 39.6964 60.5686 37.6958Z" fill="#E0C7C3"/>
<path fill-rule="evenodd" clip-rule="evenodd" d="M56.0964 42.9992C60.3392 43.5578 60.8457 39.6964 60.5686 37.6958H10.8761C10.4273 40.9876 11.7407 42.5503 13.2868 42.9992H56.0964ZM13.3403 42.6335H56.1204L56.1442 42.6366C57.1493 42.7689 57.9008 42.6357 58.4626 42.3593C59.0235 42.0834 59.4247 41.6505 59.706 41.1326C60.2171 40.1919 60.3203 38.9902 60.2414 38.0616H11.2004C11.0513 39.4894 11.2649 40.5202 11.6548 41.2392C12.0605 41.9871 12.6726 42.4276 13.3403 42.6335Z" fill="#956C6C"/>
<path d="M23.9269 37.7123H21.9651C22.4705 36.0365 23.7938 35.2851 24.3924 35.1188C25.3367 34.8794 25.606 33.7999 25.6226 33.2901L43.345 33.0074L46.537 34.0715L46.8861 35.4181C48.7215 34.6999 48.4378 36.6483 48.0665 37.7123H46.3874C43.7938 34.2011 41.7822 36.2493 41.1006 37.7123H29.3134C29.3932 36.2227 27.3516 35.8725 26.3209 35.8836C24.6052 36.123 24.01 37.2025 23.9269 37.7123Z" fill="#C09466"/>
<path d="M25.2402 38.261C25.2402 38.8595 24.7415 39.0978 24.4921 39.1421C22.8961 36.921 24.9909 36.0332 26.2377 35.867C30.7598 35.7839 29.1471 38.8928 28.6816 39.1421C28.3092 39.3416 27.806 38.6378 27.601 38.261C27.5611 39.0856 26.8418 39.6354 26.4871 39.8071C26.0615 39.8071 25.4785 38.7764 25.2402 38.261Z" fill="#84B22A"/>
<path d="M42.3418 38.0797C42.3418 38.6782 41.8431 38.9165 41.5937 38.9609C39.9977 36.7397 42.0925 35.852 43.3393 35.6857C47.8614 35.6026 46.2487 38.7115 45.7832 38.9609C45.4108 39.1604 44.9076 38.4566 44.7026 38.0797C44.6627 38.9043 43.9434 39.4541 43.5887 39.6259C43.1631 39.6259 42.5801 38.5951 42.3418 38.0797Z" fill="#84B22A"/>
<path d="M43.6142 33.429C41.9466 35.6569 38.5733 37.1804 34.6833 37.1804C29.1375 37.1804 24.6417 34.0839 24.6417 30.2643C24.6417 26.4447 29.1375 23.3483 34.6833 23.3483C38.2912 23.3483 41.4548 24.6588 43.2251 26.6264L60.6683 23.7805C58.4461 28.1529 51.9401 36.3025 43.6941 33.9218L43.6142 33.429Z" fill="#84B22A"/>
<path d="M8 25.2602L27.5345 26.3408V33.1903C15.2652 37.8786 9.72901 29.5217 8 25.2602Z" fill="#84B22A"/>
<path d="M9.09726 25.9252C13.2868 28.2028 23.4115 25.4264 24.6417 33.0906C21.2724 33.8277 12.5952 32.921 9.09726 25.9252Z" fill="#376500"/>
<path d="M59.6209 24.6783C55.4314 26.956 44.9908 24.1131 44.5918 32.6584C49.2801 33.2735 56.123 31.6742 59.6209 24.6783Z" fill="#376500"/>
<path d="M32.3059 31.5777C32.3059 32.854 31.0852 33.8886 29.5794 33.8886C28.0736 33.8886 26.8529 32.854 26.8529 31.5777C26.8529 30.3015 28.0736 29.2668 29.5794 29.2668C31.0852 29.2668 32.3059 30.3015 32.3059 31.5777Z" fill="#392E2C"/>
<path d="M42.2145 31.3117C42.2145 32.588 40.9938 33.6226 39.4879 33.6226C37.9821 33.6226 36.7614 32.588 36.7614 31.3117C36.7614 30.0355 37.9821 29.0009 39.4879 29.0009C40.9938 29.0009 42.2145 30.0355 42.2145 31.3117Z" fill="#392E2C"/>
<path d="M29.3799 31.6941C29.3799 31.8226 29.2608 31.9268 29.1139 31.9268C28.967 31.9268 28.8479 31.8226 28.8479 31.6941C28.8479 31.5655 28.967 31.4613 29.1139 31.4613C29.2608 31.4613 29.3799 31.5655 29.3799 31.6941Z" fill="white"/>
<path d="M38.6899 30.7298C38.6899 30.9869 38.4592 31.1953 38.1746 31.1953C37.8899 31.1953 37.6592 30.9869 37.6592 30.7298C37.6592 30.4727 37.8899 30.2643 38.1746 30.2643C38.4592 30.2643 38.6899 30.4727 38.6899 30.7298Z" fill="white"/>
<path d="M28.9809 30.9959C28.9809 31.253 28.7501 31.4614 28.4655 31.4614C28.1809 31.4614 27.9501 31.253 27.9501 30.9959C27.9501 30.7388 28.1809 30.5304 28.4655 30.5304C28.7501 30.5304 28.9809 30.7388 28.9809 30.9959Z" fill="white"/>
<path d="M39.2219 31.2951C39.2219 31.4237 39.1029 31.5279 38.9559 31.5279C38.809 31.5279 38.6899 31.4237 38.6899 31.2951C38.6899 31.1666 38.809 31.0624 38.9559 31.0624C39.1029 31.0624 39.2219 31.1666 39.2219 31.2951Z" fill="white"/>
<path d="M33.6027 33.8054C33.8243 33.5838 34.4638 33.2734 35.2485 33.8054C34.977 33.1792 34.2677 32.3025 33.6027 33.8054Z" fill="#392E2C"/>
<path d="M32.9044 34.8861C33.3533 35.0856 34.5935 35.3649 35.9634 34.8861C35.4148 35.4902 34.0349 36.3358 32.9044 34.8861Z" fill="#392E2C"/>
<path d="M38.9393 55.4846C51.9401 54.6866 55.6863 46.4128 56.5287 42.916H49.463C51.1521 46.5868 41.9983 52.9299 38.9393 55.4846Z" fill="#8E6B66"/>
<defs>
<linearGradient id="paint0_linear_1_1888" x1="35.8773" y1="0.748291" x2="35.8773" y2="70.7483" gradientUnits="userSpaceOnUse">
<stop stop-color="#003B4A"/>
<stop offset="1" stop-color="#061C2B"/>
</linearGradient>
</defs>
</svg>
